<svg width="504" height="726" viewBox="0 0 504 726" fill="none" xmlns="http://www.w3.org/2000/svg">
<rect x="410" y="189" width="18" height="18" rx="4" fill="white" stroke="black" stroke-width="2"/>
<rect x="390" y="149" width="18" height="18" rx="4" fill="white" stroke="black" stroke-width="2"/>
<rect x="370" y="169" width="18" height="18" rx="4" fill="white" stroke="black" stroke-width="2"/>
<rect x="350" y="129" width="18" height="18" rx="4" fill="white" stroke="black" stroke-width="2"/>
<rect x="290" y="189" width="18" height="18" rx="4" fill="white" stroke="black" stroke-width="2"/>
<rect x="270" y="149" width="18" height="18" rx="4" fill="white" stroke="black" stroke-width="2"/>
<rect x="250" y="169" width="18" height="18" rx="4" fill="white" stroke="black" stroke-width="2"/>
<rect x="230" y="129" width="18" height="18" rx="4" fill="white" stroke="black" stroke-width="2"/>
<rect x="170" y="189" width="18" height="18" rx="4" fill="white" stroke="black" stroke-width="2"/>
<rect x="150" y="149" width="18" height="18" rx="4" fill="white" stroke="black" stroke-width="2"/>
<rect x="130" y="169" width="18" height="18" rx="4" fill="white" stroke="black" stroke-width="2"/>
<rect x="110" y="129" width="18" height="18" rx="4" fill="white" stroke="black" stroke-width="2"/>
<line y1="-0.5" x2="28.2843" y2="-0.5" transform="matrix(-0.707107 0.707107 0.707107 0.707107 229 168)" stroke="black"/>
<line y1="-0.5" x2="28.2843" y2="-0.5" transform="matrix(-0.707107 0.707107 0.707107 0.707107 209 148)" stroke="black"/>
<line y1="-0.5" x2="28.2843" y2="-0.5" transform="matrix(-0.707107 0.707107 0.707107 0.707107 349 168)" stroke="black"/>
<line y1="-0.5" x2="28.2843" y2="-0.5" transform="matrix(-0.707107 0.707107 0.707107 0.707107 329 148)" stroke="black"/>
<line y1="-0.5" x2="28.2843" y2="-0.5" transform="matrix(-0.707107 -0.707107 -0.707107 0.707107 149 128)" stroke="black"/>
<line y1="-0.5" x2="28.2843" y2="-0.5" transform="matrix(-0.707107 -0.707107 -0.707107 0.707107 109 168)" stroke="black"/>
<line y1="-0.5" x2="56.5685" y2="-0.5" transform="matrix(-0.707107 0.707107 0.707107 0.707107 149 128)" stroke="black"/>
<line y1="-0.5" x2="56.5685" y2="-0.5" transform="matrix(-0.707107 -0.707107 -0.707107 0.707107 169 188)" stroke="black"/>
<line y1="-0.5" x2="28.2843" y2="-0.5" transform="matrix(0.707107 0.707107 0.707107 -0.707107 149 208)" stroke="black"/>
<line y1="-0.5" x2="56.5685" y2="-0.5" transform="matrix(-0.707107 0.707107 0.707107 0.707107 189 168)" stroke="black"/>
<line y1="-0.5" x2="28.2843" y2="-0.5" transform="matrix(-0.707107 -0.707107 -0.707107 0.707107 209 188)" stroke="black"/>
<line y1="-0.5" x2="28.2843" y2="-0.5" transform="matrix(-0.707107 -0.707107 -0.707107 0.707107 269 128)" stroke="black"/>
<line y1="-0.5" x2="28.2843" y2="-0.5" transform="matrix(-0.707107 -0.707107 -0.707107 0.707107 229 168)" stroke="black"/>
<line y1="-0.5" x2="56.5685" y2="-0.5" transform="matrix(-0.707107 0.707107 0.707107 0.707107 269 128)" stroke="black"/>
<line y1="-0.5" x2="56.5685" y2="-0.5" transform="matrix(-0.707107 -0.707107 -0.707107 0.707107 289 188)" stroke="black"/>
<line y1="-0.5" x2="28.2843" y2="-0.5" transform="matrix(0.707107 0.707107 0.707107 -0.707107 269 208)" stroke="black"/>
<line y1="-0.5" x2="56.5685" y2="-0.5" transform="matrix(-0.707107 0.707107 0.707107 0.707107 309 168)" stroke="black"/>
<line y1="-0.5" x2="28.2843" y2="-0.5" transform="matrix(-0.707107 -0.707107 -0.707107 0.707107 329 188)" stroke="black"/>
<line y1="-0.5" x2="28.2843" y2="-0.5" transform="matrix(-0.707107 -0.707107 -0.707107 0.707107 389 128)" stroke="black"/>
<line y1="-0.5" x2="28.2843" y2="-0.5" transform="matrix(-0.707107 -0.707107 -0.707107 0.707107 349 168)" stroke="black"/>
<line y1="-0.5" x2="56.5685" y2="-0.5" transform="matrix(-0.707107 0.707107 0.707107 0.707107 389 128)" stroke="black"/>
<line y1="-0.5" x2="56.5685" y2="-0.5" transform="matrix(-0.707107 -0.707107 -0.707107 0.707107 409 188)" stroke="black"/>
<line y1="-0.5" x2="28.2843" y2="-0.5" transform="matrix(0.707107 0.707107 0.707107 -0.707107 389 208)" stroke="black"/>
<line y1="-0.5" x2="56.5685" y2="-0.5" transform="matrix(-0.707107 0.707107 0.707107 0.707107 429 168)" stroke="black"/>
<line y1="-0.5" x2="28.2843" y2="-0.5" transform="matrix(-0.707107 -0.707107 -0.707107 0.707107 449 188)" stroke="black"/>
<rect x="400" y="329" width="18" height="18" rx="4" fill="white" stroke="black" stroke-width="2"/>
<rect x="340" y="329" width="18" height="18" rx="4" fill="white" stroke="black" stroke-width="2"/>
<rect x="260" y="329" width="18" height="18" rx="4" fill="white" stroke="black" stroke-width="2"/>
<rect x="180" y="329" width="18" height="18" rx="4" fill="white" stroke="black" stroke-width="2"/>
<rect x="100" y="329" width="18" height="18" rx="4" fill="white" stroke="black" stroke-width="2"/>
<rect x="100" y="370" width="18" height="18" rx="4" fill="white" stroke="black" stroke-width="2"/>
<line x1="429" y1="357.5" x2="469" y2="357.5" stroke="black"/>
<line x1="468.5" y1="398" x2="468.5" y2="358" stroke="black"/>
<line x1="389.5" y1="318" x2="389.5" y2="398" stroke="black"/>
<line x1="429.5" y1="318" x2="429.5" y2="398" stroke="black"/>
<line x1="89" y1="317.5" x2="429" y2="317.5" stroke="black"/>
<line x1="88.5" y1="398" x2="88.5" y2="318" stroke="black"/>
<line x1="89" y1="397.5" x2="469" y2="397.5" stroke="black"/>
<rect x="410" y="519" width="18" height="18" rx="4" fill="white" stroke="black" stroke-width="2"/>
<rect x="390" y="559" width="18" height="18" rx="4" fill="white" stroke="black" stroke-width="2"/>
<rect x="370" y="539" width="18" height="18" rx="4" fill="white" stroke="black" stroke-width="2"/>
<rect x="350" y="579" width="18" height="18" rx="4" fill="white" stroke="black" stroke-width="2"/>
<rect x="290" y="519" width="18" height="18" rx="4" fill="white" stroke="black" stroke-width="2"/>
<rect x="270" y="559" width="18" height="18" rx="4" fill="white" stroke="black" stroke-width="2"/>
<rect x="250" y="539" width="18" height="18" rx="4" fill="white" stroke="black" stroke-width="2"/>
<rect x="230" y="579" width="18" height="18" rx="4" fill="white" stroke="black" stroke-width="2"/>
<rect x="170" y="519" width="18" height="18" rx="4" fill="white" stroke="black" stroke-width="2"/>
<rect x="150" y="559" width="18" height="18" rx="4" fill="white" stroke="black" stroke-width="2"/>
<rect x="130" y="539" width="18" height="18" rx="4" fill="white" stroke="black" stroke-width="2"/>
<rect x="110" y="579" width="18" height="18" rx="4" fill="white" stroke="black" stroke-width="2"/>
<line x1="309.354" y1="557.646" x2="329.354" y2="577.646" stroke="black"/>
<line x1="329.354" y1="537.646" x2="349.354" y2="557.646" stroke="black"/>
<line x1="189.354" y1="557.646" x2="209.354" y2="577.646" stroke="black"/>
<line x1="209.354" y1="537.646" x2="229.354" y2="557.646" stroke="black"/>
<line x1="388.646" y1="517.646" x2="408.646" y2="497.646" stroke="black"/>
<line x1="428.646" y1="557.646" x2="448.646" y2="537.646" stroke="black"/>
<line x1="389.354" y1="517.646" x2="429.354" y2="557.646" stroke="black"/>
<line x1="368.646" y1="577.646" x2="408.646" y2="537.646" stroke="black"/>
<line x1="389.354" y1="598.354" x2="369.354" y2="618.354" stroke="black"/>
<line x1="349.354" y1="557.646" x2="389.354" y2="597.646" stroke="black"/>
<line x1="328.646" y1="577.646" x2="348.646" y2="557.646" stroke="black"/>
<line x1="268.646" y1="517.646" x2="288.646" y2="497.646" stroke="black"/>
<line x1="308.646" y1="557.646" x2="328.646" y2="537.646" stroke="black"/>
<line x1="269.354" y1="517.646" x2="309.354" y2="557.646" stroke="black"/>
<line x1="248.646" y1="577.646" x2="288.646" y2="537.646" stroke="black"/>
<line x1="269.354" y1="598.354" x2="249.354" y2="618.354" stroke="black"/>
<line x1="229.354" y1="557.646" x2="269.354" y2="597.646" stroke="black"/>
<line x1="208.646" y1="577.646" x2="228.646" y2="557.646" stroke="black"/>
<line x1="148.646" y1="517.646" x2="168.646" y2="497.646" stroke="black"/>
<line x1="188.646" y1="557.646" x2="208.646" y2="537.646" stroke="black"/>
<line x1="149.354" y1="517.646" x2="189.354" y2="557.646" stroke="black"/>
<line x1="128.646" y1="577.646" x2="168.646" y2="537.646" stroke="black"/>
<line x1="149.354" y1="598.354" x2="129.354" y2="618.354" stroke="black"/>
<line x1="109.354" y1="557.646" x2="149.354" y2="597.646" stroke="black"/>
<line x1="88.6464" y1="577.646" x2="108.646" y2="557.646" stroke="black"/>
<line x1="449" y1="717.5" x2="489" y2="717.5" stroke="black" stroke-dasharray="2 2"/>
<line x1="29" y1="108.5" x2="9" y2="108.5" stroke="black"/>
<line x1="29" y1="68.5" x2="9" y2="68.5" stroke="black"/>
<line x1="29" y1="658.5" x2="9" y2="658.5" stroke="black"/>
<line x1="29" y1="618.5" x2="9" y2="618.5" stroke="black"/>
<line x1="29.5" y1="658" x2="29.5" y2="718" stroke="black"/>
<line x1="29.5" y1="108" x2="29.5" y2="618" stroke="black"/>
<line x1="29.5" y1="8" x2="29.5" y2="68" stroke="black"/>
<line x1="489" y1="8.5" x2="29" y2="8.5" stroke="black"/>
<line x1="488.5" y1="718" x2="488.5" y2="8" stroke="black"/>
<line x1="449" y1="718.5" x2="29" y2="718.5" stroke="black"/>
<path d="M456.179 716H455.256L457.926 708.727H458.835L461.506 716H460.582L458.409 709.878H458.352L456.179 716ZM456.52 713.159H460.241V713.94H456.52V713.159ZM464.585 716.114C464.13 716.114 463.729 715.999 463.381 715.769C463.033 715.537 462.76 715.21 462.564 714.789C462.367 714.365 462.269 713.865 462.269 713.287C462.269 712.714 462.367 712.217 462.564 711.795C462.76 711.374 463.034 711.049 463.384 710.819C463.735 710.589 464.139 710.474 464.599 710.474C464.954 710.474 465.234 710.534 465.44 710.652C465.649 710.768 465.807 710.901 465.916 711.05C466.027 711.196 466.114 711.317 466.175 711.412H466.246V708.727H467.085V716H466.275V715.162H466.175C466.114 715.261 466.026 715.387 465.913 715.538C465.799 715.687 465.637 715.821 465.426 715.94C465.215 716.056 464.935 716.114 464.585 716.114ZM464.698 715.361C465.034 715.361 465.318 715.273 465.55 715.098C465.782 714.92 465.959 714.675 466.08 714.363C466.2 714.048 466.261 713.685 466.261 713.273C466.261 712.866 466.201 712.509 466.083 712.204C465.965 711.896 465.79 711.657 465.558 711.487C465.326 711.314 465.039 711.227 464.698 711.227C464.343 711.227 464.047 711.318 463.81 711.501C463.576 711.681 463.4 711.926 463.281 712.236C463.165 712.544 463.107 712.889 463.107 713.273C463.107 713.661 463.166 714.014 463.285 714.331C463.406 714.646 463.583 714.897 463.817 715.084C464.054 715.268 464.348 715.361 464.698 715.361ZM468.736 716V710.545H469.545V711.398H469.616C469.73 711.107 469.914 710.88 470.167 710.719C470.42 710.556 470.724 710.474 471.08 710.474C471.439 710.474 471.739 710.556 471.978 710.719C472.219 710.88 472.408 711.107 472.543 711.398H472.599C472.739 711.116 472.949 710.892 473.228 710.727C473.507 710.558 473.842 710.474 474.233 710.474C474.721 710.474 475.12 710.627 475.43 710.933C475.74 711.236 475.895 711.708 475.895 712.349V716H475.057V712.349C475.057 711.947 474.947 711.659 474.727 711.487C474.506 711.314 474.247 711.227 473.949 711.227C473.565 711.227 473.268 711.343 473.058 711.575C472.847 711.805 472.741 712.096 472.741 712.449V716H471.889V712.264C471.889 711.954 471.789 711.704 471.587 711.515C471.386 711.323 471.127 711.227 470.81 711.227C470.592 711.227 470.388 711.285 470.199 711.401C470.012 711.517 469.86 711.678 469.744 711.884C469.631 712.088 469.574 712.323 469.574 712.591V716H468.736ZM477.427 716V710.545H478.265V716H477.427ZM477.853 709.636C477.69 709.636 477.549 709.581 477.431 709.469C477.315 709.358 477.257 709.224 477.257 709.068C477.257 708.912 477.315 708.778 477.431 708.667C477.549 708.556 477.69 708.5 477.853 708.5C478.017 708.5 478.156 708.556 478.272 708.667C478.391 708.778 478.45 708.912 478.45 709.068C478.45 709.224 478.391 709.358 478.272 709.469C478.156 709.581 478.017 709.636 477.853 709.636ZM480.638 712.719V716H479.8V710.545H480.61V711.398H480.681C480.809 711.121 481.003 710.898 481.263 710.73C481.524 710.56 481.86 710.474 482.272 710.474C482.641 710.474 482.964 710.55 483.241 710.702C483.518 710.851 483.734 711.078 483.888 711.384C484.041 711.687 484.118 712.07 484.118 712.534V716H483.28V712.591C483.28 712.162 483.169 711.829 482.947 711.589C482.724 711.348 482.419 711.227 482.03 711.227C481.763 711.227 481.524 711.285 481.313 711.401C481.105 711.517 480.94 711.687 480.819 711.909C480.699 712.132 480.638 712.402 480.638 712.719Z" fill="black"/>
</svg>
